# xmcd
#
# Track frame offsets: 
#        150
#        14995
#        29022
#        51415
#        66872
#        95321
#        111681
#        130370
#        143979
#        154597
#        171100
#        195873
#        208623
#        229632
#        250803
#        271977
#
# Disc length: 3874 seconds
#
# Revision: 0
# Processed by: cddbd v1.5.2PL0 Copyright (c) Steve Scherf et al.
# Submitted via: ExactAudioCopyFreeDBPlugin 1.0
#
DISCID=ed0f2010
DTITLE=陈林 - 浪漫萨克斯回家
DYEAR=1900
DGENRE=
TTITLE0=柠檬树
TTITLE1=绿袖子
TTITLE2=轻歌销魂
TTITLE3=乡村路带我回家
TTITLE4=加州旅馆
TTITLE5=南加州从不下雨
TTITLE6=风中的蜡烛
TTITLE7=田纳西华尔兹
TTITLE8=马萨诸塞州
TTITLE9=甜蜜的一天
TTITLE10=回家
TTITLE11=500里路
TTITLE12=我心依旧
TTITLE13=茉莉花
TTITLE14=别为我哭泣，阿根廷
TTITLE15=在此等候
EXTD=
EXTT0=
EXTT1=
EXTT2=
EXTT3=
EXTT4=
EXTT5=
EXTT6=
EXTT7=
EXTT8=
EXTT9=
EXTT10=
EXTT11=
EXTT12=
EXTT13=
EXTT14=
EXTT15=
PLAYORDER=
